<?xml version="1.0"?><svg version="1.2" baseProfile="tiny-ps" viewBox="0 0 300 300" xmlns="http://www.w3.org/2000/svg" xmlns:xlink="http://www.w3.org/1999/xlink"><title>Education</title><g><g fill="#feffff" transform="matrix(.1 0 0 -.1 0 300)"><path d="M0 1500V0h3000v3000H0V1500z"/></g><g fill="#eaf1f3" transform="matrix(.1 0 0 -.1 0 300)"><path d="m1032 1685 3-297 73-19c40-10 103-33 140-50l67-32 69-69c66-66 88-79 101-58l6 9-15 29c-8 16-40 52-71 80l-55 51-68 33c-37 19-97 43-134 53l-68 20v487l33-7c147-29 287-109 342-194l23-36 4-215 3-215 10-15 9-14 8 29c5 17 11 122 14 235l7 205 19 33 20 33 52 38c77 58 163 96 264 116l32 7v-487l-63-18c-34-10-96-35-137-55l-75-37-62-62-63-63v-50h30l63 64 62 63 72 36 71 36 74 19 73 19 3 298 2 298-52-7c-29-4-93-20-141-37l-89-29-68-44-68-44-23-31-22-30-59 54-59 55-72 34c-76 37-158 61-239 72l-48 7 2-298zm-90-82 3-328 82-11c45-7 127-24 183-38 55-14 105-26 111-26h10l-6 10c-19 31-240 110-306 110h-29v610h-50l2-327zm1068 25v-303l-86-17-86-16-86-42-87-42 11-4c6-3 66 9 134 26 68 16 152 33 187 36l63 7v657h-50v-302zM830 1485v-385h507l24-26c13-15 38-33 56-40l32-14h117l47 30c26 16 47 34 47 40v10l258 2 257 3v760l-27 3-28 3v-711h-489l-6-20-6-20-37-25-37-25h-80l-32 20c-18 10-39 31-49 45l-16 25H880v710h-50v-385z"/></g><g fill="#c6d3d7" transform="matrix(.1 0 0 -.1 0 300)"><path d="M1030 1686v-296l28-6c86-19 114-29 187-64l80-38 45-40c25-22 52-51 59-66l14-26h37v46l-35 42-36 41-67 44c-67 44-168 89-229 102l-33 7v488h19c11 0 55-11 98-25 117-37 198-90 255-165l26-35 4-215 4-215 9-15 9-15 8 40c4 22 10 129 14 238l7 197 36 41c60 71 203 147 309 164l42 7v-490l-72-22c-126-37-235-106-300-188-32-40-35-60-12-69l17-6 14 19c7 10 32 38 55 62l41 43 61 34c55 30 146 63 219 79l27 6v590h-17c-10 0-56-9-103-20l-85-21-74-35-74-36-57-57-57-56-53 53-52 52-82 40c-81 40-153 62-240 75l-46 7v-296zm-83 237-7-6v-636l38-6c102-17 204-38 270-56 41-12 76-18 79-15 3 2-26 21-65 40l-69 35-81 20c-44 12-90 21-101 21h-21v610h-18c-10 0-22-3-25-7zm1070 0-7-6v-592l-77-17c-43-9-103-25-133-37-57-22-125-59-119-66 2-2 57 9 121 25s138 31 165 35c26 3 58 8 71 11l22 4v650h-18c-10 0-22-3-25-7zM832 1488l3-383 250-3 249-2 26-24c14-13 39-31 57-40l32-16h102l32 14c18 7 43 25 56 40l24 26h507v771l-22-3-23-3-3-357-2-358h-489l-11-21c-6-11-26-29-43-39l-32-20h-88l-33 21c-19 11-39 29-44 40l-11 19H880v720h-50l2-382z"/></g><g fill="#95a5ac" transform="matrix(.1 0 0 -.1 0 300)"><path d="M1036 1972c-3-3-6-134-6-291v-286l82-23c45-12 111-37 147-54l66-32 69-69 68-69 10 10 10 10-7 21c-10 33-96 112-166 154l-64 38-82 25-83 26v488h21c34 0 130-31 189-60 79-40 136-84 164-127l24-38 4-210 5-211 10-18 10-18 6 62c4 35 7 134 7 222v159l14 27c8 15 37 49 65 75l52 48 64 31c65 30 154 58 188 58h17l-2-246-3-247-60-16c-33-10-91-33-130-52l-70-34-68-67-69-67 4-18 3-18 16-3 16-3 27 41c48 73 186 154 319 186l67 17v588l-37-6c-21-4-72-16-113-26l-74-20-71-37-70-37-52-51-52-51-38 40c-21 22-65 57-97 78l-59 39-91 29c-93 29-170 43-180 33zm-96-372v-320h9c24 0 198-34 281-55l95-24-23 19c-33 27-167 77-245 90l-67 12v598h-50v-320zm1070 22v-299l-82-17-83-18-84-39c-46-22-82-42-79-44 3-3 16-1 30 4 32 12 238 57 301 66l47 6v639h-50v-298zM837 1864l-7-7v-747h508l15-24 16-24 44-21 43-21h89l40 19c22 10 51 30 64 45l24 26h497v760h-40v-720h-491l-30-35-31-35-37-10-37-10-39 11-40 11-32 34-32 34H880l-2 357-3 358-15 3c-9 1-19 0-23-4z"/></g><g fill="#59707d" transform="matrix(.1 0 0 -.1 0 300)"><path d="M1040 1682v-288l71-18 71-18 78-39 78-39 61-66 61-65 10 6c6 3 10 13 10 22v15l-62 62-63 62-50 28c-27 15-88 41-135 56l-85 29-3 250-2 251 32-7c65-12 171-52 225-85l55-33 43-47 42-47 6-208 5-208 9-24 10-25 6 79c4 43 7 144 7 225v147l34 45 35 45 56 38 56 37 77 28c43 15 93 30 112 32l35 3v-497l-75-22c-129-38-244-110-300-188l-30-41 11-13 11-13 67 68 66 68 67 32c36 18 102 43 145 56l78 22 3 287 2 286h-34c-18 0-74-12-122-26l-89-25-63-35-62-35-49-49-49-49-55 54-55 53-83 40-84 40-66 16c-36 9-77 16-92 16h-27v-288zm-90-81v-320l58-7c31-3 111-20 176-36 65-15 121-27 123-25 4 5-122 62-167 75-19 6-61 16-92 22l-58 11v599h-40v-319zm1070 19v-299l-37-6c-76-13-186-46-235-71-27-14-48-27-46-29 1-2 48 7 102 20 54 14 134 30 177 36l79 12v637h-40v-300zM830 1485v-375h507l24-26c50-55 125-75 202-53l37 10 35 35 34 34h501v750h-40v-710h-495l-16-29-17-28-45-18-46-17-38 7-37 7-39 39-39 39H870v710h-40v-375z"/></g><g fill="#214256" transform="matrix(.1 0 0 -.1 0 300)"><path d="M1040 1684v-289l70-17c129-31 275-117 316-188l18-30h18c10 0 18 4 18 8 0 21-63 94-112 130-69 52-106 70-208 103l-85 27-3 252-2 252 42-7c60-10 139-39 207-75l59-32 46-46 47-46 4-21c2-11 6-102 9-201l6-182 8-23 9-23 6 79c4 43 7 136 7 207v129l15 28c43 84 211 181 358 207l37 6-2-253-3-252-70-22c-87-26-165-65-228-113-47-36-97-98-97-120v-12h14c7 0 21 11 29 24 9 13 33 40 54 60l38 37 88 44 88 44 59 13 60 12v576h-18c-40 0-181-42-249-75l-72-34-61-59-61-59-26 34-26 33-72 48-71 49-85 26c-46 14-105 29-131 33l-48 6v-288zm-90-83v-318l60-7c32-4 111-20 175-35 63-16 115-27 115-25 0 17-155 72-245 88l-70 12-3 302-2 302h-30v-319zm1068 17-3-303-30-3c-75-8-275-76-262-89 2-2 50 8 107 21 56 14 129 28 161 32l59 7v637h-30l-2-302zM840 1485v-375h492l39-34 40-34 44-11 43-11 34 7c45 8 78 26 107 57l24 26h507v750h-40v-710h-481l-37-39-37-39-38-7-37-7-36 6-35 7-38 40-39 39H870v710h-30v-375z"/></g></g></svg>